<svg xmlns="http://www.w3.org/2000/svg" viewBox="0 0 100 100" width="512" height="512">
  <defs>
    <radialGradient id="bodyGrad_cozy_clap" cx="40%" cy="40%" r="60%">
      <stop offset="0%" stop-color="#C59B76" />
      <stop offset="100%" stop-color="#8C6239" />
    </radialGradient>
    <linearGradient id="maskGrad" x1="0%" y1="0%" x2="100%" y2="100%">
      <stop offset="0%" stop-color="#EED7C5" />
      <stop offset="100%" stop-color="#DDB892" />
    </linearGradient>
  </defs>
  <path d="M 28 45 C 20 65, 20 85, 36 94 C 50 100, 64 98, 72 90 C 82 80, 80 55, 72 45 C 65 35, 35 35, 28 45 Z" fill="url(#bodyGrad_cozy_clap)" />
  <ellipse cx="50" cy="74" rx="18" ry="16" fill="#F7EDE2" />
  
      <path d="M 30 65 Q 22 45 32 36" stroke="#A98467" stroke-width="11" stroke-linecap="round" fill="none" />
      <path d="M 70 65 Q 78 45 68 36" stroke="#A98467" stroke-width="11" stroke-linecap="round" fill="none" />
      <circle cx="32" cy="34" r="3" fill="#E6CCB2" />
      <circle cx="68" cy="34" r="3" fill="#E6CCB2" />
    
  <circle cx="50" cy="48" r="24" fill="url(#bodyGrad_cozy_clap)" />
  <path d="M 30 50 C 30 40, 44 42, 50 46 C 56 42, 70 40, 70 50 C 70 58, 58 56, 50 54 C 42 56, 30 58, 30 50 Z" fill="url(#maskGrad)" />
  <ellipse cx="39" cy="50" rx="8" ry="6.5" fill="#B08968" opacity="0.65" />
  <ellipse cx="61" cy="50" rx="8" ry="6.5" fill="#B08968" opacity="0.65" />
  <circle cx="33" cy="56" r="4.5" fill="#F4A261" opacity="0.45" />
  <circle cx="67" cy="56" r="4.5" fill="#F4A261" opacity="0.45" />
  <path d="M 47 52 Q 50 50 53 52 L 50 55 Z" fill="#4A2E1B" />
  
      <path d="M 34 50 Q 40 44 46 50" stroke="#3D2619" stroke-width="3.5" stroke-linecap="round" fill="none" />
      <path d="M 54 50 Q 60 44 66 50" stroke="#3D2619" stroke-width="3.5" stroke-linecap="round" fill="none" />
      <path d="M 42 58 Q 50 68 58 58 Z" fill="#E63946" stroke="#3D2619" stroke-width="1.5" />
    
  
        <path d="M 32 32 C 34 16, 66 16, 68 32 Z" fill="#E63946" />
        <rect x="30" y="28" width="40" height="7" rx="3.5" fill="#F1FAEE" />
        <circle cx="50" cy="14" r="6" fill="#FFFFFF" />
      
</svg>