<svg xmlns="http://www.w3.org/2000/svg" viewBox="0 0 100 100" width="512" height="512">
  <defs>
    <radialGradient id="bodyGrad_cozy_listening" cx="40%" cy="40%" r="60%">
      <stop offset="0%" stop-color="#C59B76" />
      <stop offset="100%" stop-color="#8C6239" />
    </radialGradient>
    <linearGradient id="maskGrad" x1="0%" y1="0%" x2="100%" y2="100%">
      <stop offset="0%" stop-color="#EED7C5" />
      <stop offset="100%" stop-color="#DDB892" />
    </linearGradient>
  </defs>
  <path d="M 28 45 C 20 65, 20 85, 36 94 C 50 100, 64 98, 72 90 C 82 80, 80 55, 72 45 C 65 35, 35 35, 28 45 Z" fill="url(#bodyGrad_cozy_listening)" />
  <ellipse cx="50" cy="74" rx="18" ry="16" fill="#F7EDE2" />
  
      <path d="M 30 65 Q 20 75 28 86" stroke="#A98467" stroke-width="11" stroke-linecap="round" fill="none" />
      <path d="M 70 65 Q 80 75 72 86" stroke="#A98467" stroke-width="11" stroke-linecap="round" fill="none" />
    
  <circle cx="50" cy="48" r="24" fill="url(#bodyGrad_cozy_listening)" />
  <path d="M 30 50 C 30 40, 44 42, 50 46 C 56 42, 70 40, 70 50 C 70 58, 58 56, 50 54 C 42 56, 30 58, 30 50 Z" fill="url(#maskGrad)" />
  <ellipse cx="39" cy="50" rx="8" ry="6.5" fill="#B08968" opacity="0.65" />
  <ellipse cx="61" cy="50" rx="8" ry="6.5" fill="#B08968" opacity="0.65" />
  <circle cx="33" cy="56" r="4.5" fill="#F4A261" opacity="0.45" />
  <circle cx="67" cy="56" r="4.5" fill="#F4A261" opacity="0.45" />
  <path d="M 47 52 Q 50 50 53 52 L 50 55 Z" fill="#4A2E1B" />
  
      <ellipse cx="38" cy="50" rx="5.5" ry="6.5" fill="#3D2619" />
      <circle cx="40" cy="48" r="2" fill="#FFFFFF" />
      <ellipse cx="58" cy="50" rx="5.5" ry="6.5" fill="#3D2619" />
      <circle cx="60" cy="48" r="2" fill="#FFFFFF" />
      <path d="M 45 58 Q 50 62 55 58" stroke="#3D2619" stroke-width="2.5" stroke-linecap="round" fill="none" />
      <text x="75" y="44" font-size="16" fill="#2A9D8F" font-family="sans-serif">♪</text>
    
  
        <path d="M 32 32 C 34 16, 66 16, 68 32 Z" fill="#E63946" />
        <rect x="30" y="28" width="40" height="7" rx="3.5" fill="#F1FAEE" />
        <circle cx="50" cy="14" r="6" fill="#FFFFFF" />
      
</svg>